<svg xmlns="http://www.w3.org/2000/svg" xmlns:xlink="http://www.w3.org/1999/xlink" viewBox="0 0 550 100" width="550" height="100" preserveAspectRatio="xMidYMid meet" style="width: 100%; height: 100%; transform: translate3d(0px, 0px, 0px); content-visibility: visible;"><defs><clipPath id="__lottie_element_12"><rect width="550" height="100" x="0" y="0"></rect></clipPath></defs><g clip-path="url(#__lottie_element_12)"><g transform="matrix(1,0,0,1,-1.25,88.8499984741211)" opacity="1" fill="rgb(0,0,0)" font-size="150" font-family="Arkhip" font-style="normal" font-weight="400" aria-label="d" style="display: block;"><g stroke-linecap="butt" stroke-linejoin="round" stroke-miterlimit="4" transform="matrix(1,0,0,1,0.0000015258789289873675,0)" opacity="1" style="display: inherit;"><g><g transform="matrix(1,0,0,1,0,0)" opacity="1" style="display: block;"><path d=" M15.15,-62.25 C15.15,-62.25 24.75,-62.25 24.75,-62.25 C24.75,-62.25 24.75,0 24.75,0 C24.75,0 56.4,0 56.4,0 C62.3,0 67.67,-0.92 72.52,-2.78 C77.37,-4.62 81.52,-7.25 84.98,-10.65 C88.43,-14.05 91.07,-18.2 92.93,-23.1 C94.77,-28 95.7,-33.45 95.7,-39.45 C95.7,-45.65 94.75,-51.12 92.85,-55.87 C90.95,-60.62 88.27,-64.62 84.82,-67.87 C81.38,-71.12 77.22,-73.57 72.38,-75.23 C67.52,-76.87 62.2,-77.7 56.4,-77.7 C56.4,-77.7 8.25,-77.7 8.25,-77.7 C8.25,-77.7 15.15,-62.25 15.15,-62.25z M56.49,-62.25 C63.96,-62.25 69.74,-60.3 73.82,-56.4 C77.91,-52.5 79.95,-46.75 79.95,-39.15 C79.95,-31.65 77.91,-25.85 73.82,-21.75 C69.74,-17.65 63.96,-15.6 56.49,-15.6 C56.49,-15.6 41.1,-15.6 41.1,-15.6 C41.1,-15.6 41.1,-62.25 41.1,-62.25 C41.1,-62.25 56.49,-62.25 56.49,-62.25z"></path><g opacity="1" transform="matrix(1.5,0,0,1.5,0,0)"></g></g></g></g></g><g transform="matrix(1,0,0,1,103.99999237060547,88.8499984741211)" opacity="1" fill="rgb(0,0,0)" font-size="150" font-family="Arkhip" font-style="normal" font-weight="400" aria-label="e" style="display: block;"><g stroke-linecap="butt" stroke-linejoin="round" stroke-miterlimit="4" transform="matrix(1,0,0,1,-0.0000015258789289873675,0)" opacity="1" style="display: inherit;"><g><g transform="matrix(1,0,0,1,0,0)" opacity="1" style="display: block;"><path d=" M33.3,-27.9 C35,-28.8 36.55,-29.55 37.95,-30.15 C39.35,-30.75 40.9,-31.2 42.6,-31.5 C44.3,-31.8 46.32,-32.03 48.68,-32.18 C51.02,-32.32 54,-32.4 57.6,-32.4 C57.6,-32.4 69,-32.4 69,-32.4 C69,-32.4 69,-47.85 69,-47.85 C69,-47.85 57.6,-47.85 57.6,-47.85 C53.1,-47.85 48.77,-47.6 44.63,-47.1 C40.47,-46.6 36.7,-45.35 33.3,-43.35 C33.3,-43.35 33.3,-62.25 33.3,-62.25 C33.3,-62.25 79.2,-62.25 79.2,-62.25 C79.2,-62.25 79.2,-77.7 79.2,-77.7 C79.2,-77.7 18,-77.7 18,-77.7 C18,-77.7 18,0 18,0 C18,0 82.05,0 82.05,0 C82.05,0 82.05,-15.6 82.05,-15.6 C82.05,-15.6 33.3,-15.6 33.3,-15.6 C33.3,-15.6 33.3,-27.9 33.3,-27.9z"></path><g opacity="1" transform="matrix(1.5,0,0,1.5,0,0)"></g></g></g></g></g><g transform="matrix(1,0,0,1,203.39999389648438,88.8499984741211)" opacity="1" fill="rgb(0,0,0)" font-size="150" font-family="Arkhip" font-style="normal" font-weight="400" aria-label="f" style="display: block;"><g stroke-linecap="butt" stroke-linejoin="round" stroke-miterlimit="4" transform="matrix(1,0,0,1,0.0000015258789289873675,0)" opacity="1" style="display: inherit;"><g><g transform="matrix(1,0,0,1,0,0)" opacity="1" style="display: block;"><path d=" M33.3,-27.9 C35,-28.8 36.55,-29.55 37.95,-30.15 C39.35,-30.75 40.9,-31.2 42.6,-31.5 C44.3,-31.8 46.32,-32.03 48.68,-32.18 C51.02,-32.32 54,-32.4 57.6,-32.4 C57.6,-32.4 66,-32.4 66,-32.4 C66,-32.4 66,-47.85 66,-47.85 C66,-47.85 57.6,-47.85 57.6,-47.85 C53.1,-47.85 48.77,-47.6 44.63,-47.1 C40.47,-46.6 36.7,-45.35 33.3,-43.35 C33.3,-43.35 33.3,-62.25 33.3,-62.25 C33.3,-62.25 76.2,-62.25 76.2,-62.25 C76.2,-62.25 76.2,-77.7 76.2,-77.7 C76.2,-77.7 18,-77.7 18,-77.7 C18,-77.7 18,0 18,0 C18,0 33.3,0 33.3,0 C33.3,0 33.3,-27.9 33.3,-27.9z"></path><g opacity="1" transform="matrix(1.5,0,0,1.5,0,0)"></g></g></g></g></g><g transform="matrix(1,0,0,1,294,88.8499984741211)" opacity="1" fill="rgb(0,0,0)" font-size="150" font-family="Arkhip" font-style="normal" font-weight="400" aria-label="i" style="display: block;"><g stroke-linecap="butt" stroke-linejoin="round" stroke-miterlimit="4" transform="matrix(1,0,0,1,0,0)" opacity="1" style="display: inherit;"><g><g transform="matrix(1,0,0,1,0,0)" opacity="1" style="display: block;"><path d=" M33.3,0 C33.3,0 33.3,-77.7 33.3,-77.7 C33.3,-77.7 18,-77.7 18,-77.7 C18,-77.7 18,0 18,0 C18,0 33.3,0 33.3,0z"></path><g opacity="1" transform="matrix(1.5,0,0,1.5,0,0)"></g></g></g></g></g><g transform="matrix(1,0,0,1,353.75,88.8499984741211)" opacity="0.000009195055057631408" fill="rgb(0,0,0)" font-size="150" font-family="Arkhip" font-style="normal" font-weight="400" aria-label="j" style="display: block;"><g stroke-linecap="butt" stroke-linejoin="round" stroke-miterlimit="4" transform="matrix(1,0,0,1,0,0)" opacity="1" style="display: inherit;"><g><g transform="matrix(1,0,0,1,0,0)" opacity="1" style="display: block;"><path d=" M4.5,-3.45 C5.8,-2.55 7.42,-1.75 9.38,-1.05 C11.33,-0.35 13.4,0.27 15.6,0.83 C17.8,1.37 19.97,1.77 22.13,2.03 C24.27,2.27 26.2,2.4 27.9,2.4 C32.8,2.4 37.43,1.75 41.78,0.45 C46.13,-0.85 49.92,-2.82 53.18,-5.48 C56.42,-8.12 59,-11.4 60.9,-15.3 C62.8,-19.2 63.75,-23.8 63.75,-29.1 C63.75,-29.1 63.75,-77.7 63.75,-77.7 C63.75,-77.7 22.95,-77.7 22.95,-77.7 C22.95,-77.7 29.85,-62.25 29.85,-62.25 C29.85,-62.25 48.45,-62.25 48.45,-62.25 C48.45,-62.25 48.45,-29.1 48.45,-29.1 C48.45,-26.3 47.9,-23.9 46.8,-21.9 C45.7,-19.9 44.25,-18.25 42.45,-16.95 C40.65,-15.65 38.6,-14.7 36.3,-14.1 C34,-13.5 31.6,-13.2 29.1,-13.2 C24.8,-13.2 21.32,-13.6 18.67,-14.4 C16.02,-15.2 14,-16.25 12.6,-17.55 C12.6,-17.55 4.5,-3.45 4.5,-3.45z"></path><g opacity="1" transform="matrix(1.5,0,0,1.5,0,0)"></g></g></g></g></g><g transform="matrix(1,0,0,1,350,88.6500015258789)" opacity="0.9999987011561302" fill="rgb(0,0,0)" font-size="150" font-family="Arkhip" font-style="normal" font-weight="400" aria-label="n" style="display: block;"><g stroke-linecap="butt" stroke-linejoin="round" stroke-miterlimit="4" transform="matrix(1,0,0,1,0,0)" opacity="1" style="display: inherit;"><g><g transform="matrix(1,0,0,1,0,0)" opacity="1" style="display: block;"><path d=" M8.25,-77.7 C8.25,-77.7 15.9,-66.15 15.9,-66.15 C15.9,-66.15 15.9,0 15.9,0 C15.9,0 31.35,0 31.35,0 C31.35,0 31.35,-50.55 31.35,-50.55 C31.35,-50.55 74.55,0 74.55,0 C74.55,0 90,0 90,0 C90,0 90,-77.7 90,-77.7 C90,-77.7 74.55,-77.7 74.55,-77.7 C74.55,-77.7 74.55,-23.7 74.55,-23.7 C74.55,-23.7 27.6,-77.7 27.6,-77.7 C27.6,-77.7 8.25,-77.7 8.25,-77.7z"></path><g opacity="1" transform="matrix(1.5,0,0,1.5,0,0)"></g></g></g></g></g><g transform="matrix(1,0,0,1,450.25,88.8499984741211)" opacity="0.9999920709426171" fill="rgb(0,0,0)" font-size="150" font-family="Arkhip" font-style="normal" font-weight="400" aria-label="e" style="display: block;"><g stroke-linecap="butt" stroke-linejoin="round" stroke-miterlimit="4" transform="matrix(1,0,0,1,-0.0000015258789289873675,0)" opacity="1" style="display: inherit;"><g><g transform="matrix(1,0,0,1,0,0)" opacity="1" style="display: block;"><path d=" M33.3,-27.9 C35,-28.8 36.55,-29.55 37.95,-30.15 C39.35,-30.75 40.9,-31.2 42.6,-31.5 C44.3,-31.8 46.32,-32.03 48.68,-32.18 C51.02,-32.32 54,-32.4 57.6,-32.4 C57.6,-32.4 69,-32.4 69,-32.4 C69,-32.4 69,-47.85 69,-47.85 C69,-47.85 57.6,-47.85 57.6,-47.85 C53.1,-47.85 48.77,-47.6 44.63,-47.1 C40.47,-46.6 36.7,-45.35 33.3,-43.35 C33.3,-43.35 33.3,-62.25 33.3,-62.25 C33.3,-62.25 79.2,-62.25 79.2,-62.25 C79.2,-62.25 79.2,-77.7 79.2,-77.7 C79.2,-77.7 18,-77.7 18,-77.7 C18,-77.7 18,0 18,0 C18,0 82.05,0 82.05,0 C82.05,0 82.05,-15.6 82.05,-15.6 C82.05,-15.6 33.3,-15.6 33.3,-15.6 C33.3,-15.6 33.3,-27.9 33.3,-27.9z"></path><g opacity="1" transform="matrix(1.5,0,0,1.5,0,0)"></g></g></g></g></g><g transform="matrix(1,0,0,1,442.6000061035156,88.8499984741211)" opacity="0.000009195055057631408" fill="rgb(0,0,0)" font-size="150" font-family="Arkhip" font-style="normal" font-weight="400" aria-label="n" style="display: block;"><g stroke-linecap="butt" stroke-linejoin="round" stroke-miterlimit="4" transform="matrix(1,0,0,1,0,0)" opacity="1" style="display: inherit;"><g><g transform="matrix(1,0,0,1,0,0)" opacity="1" style="display: block;"><path d=" M8.25,-77.7 C8.25,-77.7 15.9,-66.15 15.9,-66.15 C15.9,-66.15 15.9,0 15.9,0 C15.9,0 31.35,0 31.35,0 C31.35,0 31.35,-50.55 31.35,-50.55 C31.35,-50.55 74.55,0 74.55,0 C74.55,0 90,0 90,0 C90,0 90,-77.7 90,-77.7 C90,-77.7 74.55,-77.7 74.55,-77.7 C74.55,-77.7 74.55,-23.7 74.55,-23.7 C74.55,-23.7 27.6,-77.7 27.6,-77.7 C27.6,-77.7 8.25,-77.7 8.25,-77.7z"></path><g opacity="1" transform="matrix(1.5,0,0,1.5,0,0)"></g></g></g></g></g></g></svg>